<svg width="16" height="17" viewBox="0 0 16 17" fill="#6699ff" xmlns="http://www.w3.org/2000/svg">
<path d="M7.99785 6.03239C6.52888 6.03239 5.3301 7.2312 5.3301 8.7002C5.3301 10.1692 6.52888 11.368 7.99785 11.368C9.46681 11.368 10.6656 10.1692 10.6656 8.7002C10.6656 7.2312 9.46681 6.03239 7.99785 6.03239ZM15.9991 8.7002C15.9991 7.59545 16.0091 6.50071 15.9471 5.39796C15.885 4.1171 15.5928 2.98033 14.6562 2.0437C13.7176 1.10506 12.5829 0.814868 11.302 0.752826C10.1973 0.690784 9.10258 0.700791 7.99985 0.700791C6.89512 0.700791 5.80041 0.690784 4.69768 0.752826C3.41684 0.814868 2.28009 1.10706 1.34348 2.0437C0.404861 2.98233 0.11467 4.1171 0.0526294 5.39796C-0.00941132 6.50271 0.000595279 7.59745 0.000595279 8.7002C0.000595279 9.80294 -0.00941132 10.8997 0.0526294 12.0024C0.11467 13.2833 0.406862 14.4201 1.34348 15.3567C2.28209 16.2953 3.41684 16.5855 4.69768 16.6476C5.80241 16.7096 6.89713 16.6996 7.99985 16.6996C9.10458 16.6996 10.1993 16.7096 11.302 16.6476C12.5829 16.5855 13.7196 16.2933 14.6562 15.3567C15.5948 14.4181 15.885 13.2833 15.9471 12.0024C16.0111 10.8997 15.9991 9.80494 15.9991 8.7002ZM7.99785 12.805C5.72636 12.805 3.89315 10.9717 3.89315 8.7002C3.89315 6.42866 5.72636 4.59542 7.99785 4.59542C10.2693 4.59542 12.1025 6.42866 12.1025 8.7002C12.1025 10.9717 10.2693 12.805 7.99785 12.805ZM12.2707 5.38596C11.7403 5.38596 11.312 4.95767 11.312 4.42731C11.312 3.89695 11.7403 3.46866 12.2707 3.46866C12.801 3.46866 13.2293 3.89695 13.2293 4.42731C13.2294 4.55324 13.2048 4.67797 13.1566 4.79435C13.1085 4.91073 13.0379 5.01648 12.9489 5.10553C12.8598 5.19458 12.7541 5.26518 12.6377 5.31331C12.5213 5.36143 12.3966 5.38611 12.2707 5.38596Z" fill="#6699ff"/>
</svg>
