<svg width="15" height="15" viewBox="0 0 53.3 50.7" fill="#999" xmlns="http://www.w3.org/2000/svg">
<path d="M49.9 4.3h-7.7V1c0-.6-.4-1-1-1H12c-.6 0-1 .4-1 1v3.3H3.4C1.5 4.3 0 5.8 0 7.6v2.2c0 4.8 2.6 9.1 6.9 11.3l7.4 3.8c1.9 2.2 4.9 5.2 9.5 8.4V36s.1 4.2-2.1 6.4c-.9.9-2.1 1.4-3.5 1.4-.1 0-.2 0-.3.1H16c-.6 0-1 .4-1 1v4.4c0 .6.4 1 1 1h21.5c.6 0 1-.4 1-1v-4.4c0-.6-.4-1-1-1h-2.1c-.1 0-.2-.1-.3-.1-1.5 0-2.6-.4-3.5-1.4-2.2-2.2-2.1-6.4-2.1-6.4v-2.7c4.5-3.2 7.5-6.2 9.4-8.4l7.5-3.9c4.3-2.2 6.9-6.5 6.9-11.3V7.6c0-1.8-1.6-3.3-3.4-3.3zm-13.4 44H17v-2.4h19.5v2.4zM2 9.8V7.6c0-.8.6-1.4 1.4-1.4H11V18c0 1.1.3 2.3.8 3.3l-4-2C4.2 17.5 2 13.8 2 9.8zM27.9 32c-.3.2-.4.5-.4.8V36c0 .2-.1 5 2.6 7.8h-7c2.7-2.8 2.6-7.6 2.6-7.8v-3.2c0-.3-.2-.6-.4-.8-4.8-3.3-7.8-6.3-9.6-8.5-.8-1-1.4-1.8-1.8-2.4-.6-.9-.9-1.9-.9-3V2h27.2v16.1c0 1.1-.3 2.1-.9 3-1.3 2.1-4.6 6.2-11.4 10.9zM51.3 9.8c0 4-2.2 7.7-5.8 9.6l-4 2.1c.5-1 .8-2.2.8-3.3V6.3H50c.8 0 1.4.6 1.4 1.4v2.1h-.1z"/>
</svg>