<svg width="28" height="28" viewBox="-463 265.2 32.5 30.8" xmlns="http://www.w3.org/2000/svg" xmlns:xlink="http://www.w3.org/1999/xlink">
<defs><path id="a" d="M-463 273h21.9v21.9H-463z"/></defs><clipPath id="b"><use xlink:href="#a" overflow="visible"/></clipPath><path d="M-452.2 280.1s-2.1 1-3.5 2.5c.2 1.6.8 3.2 1.4 4.2 1.4.2 3 .2 4.4 0 .4-.8 1-1.9 1.4-4.1-1.2-1.3-2.7-2.1-3.7-2.6" clip-path="url(#b)"/><defs><path id="c" d="M-463 273h21.9v21.9H-463z"/></defs><clipPath id="d"><use xlink:href="#c" overflow="visible"/></clipPath><path d="M-445.1 277.9s.7.2 1.4.6c.6 1.1 1.4 1.8 1.6 5-.3.5-.7 1-.8 1.1-.2-.3-1.4-1.9-2.2-2.8.1-1.5 0-3.4 0-3.9" clip-path="url(#d)"/><defs><path id="e" d="M-463 273h21.9v21.9H-463z"/></defs><clipPath id="f"><use xlink:href="#e" overflow="visible"/></clipPath><path d="M-455.7 275.3s.4-.6 1-1.1c1.2-.2 2.2-.7 5.2.1.4.4.7 1 .8 1.1-.3.1-2.3.7-3.4 1.2-1.2-.6-3.1-1.2-3.6-1.3" clip-path="url(#f)"/><g><defs><path id="g" d="M-463 273h21.9v21.9H-463z"/></defs><clipPath id="h"><use xlink:href="#g" overflow="visible"/></clipPath><path d="M-461.4 284.5s-.4-.6-.8-1.3c.1-1.2 0-2.3 1.6-4.9.5-.2 1.1-.4 1.3-.4 0 .4 0 2.4.2 3.6-1 1-2 2.6-2.3 3" clip-path="url(#h)"/></g><g><defs><path id="i" d="M-463 273h21.9v21.9H-463z"/></defs><clipPath id="j"><use xlink:href="#i" overflow="visible"/></clipPath><path d="M-454.3 292.9s-.7.2-1.4.3c-1.1-.5-2.2-.7-4.2-3.1-.1-.6 0-1.2 0-1.3.3.1 2.2.8 3.5 1 .6 1.2 1.8 2.7 2.1 3.1" clip-path="url(#j)"/></g><g><defs><path id="k" d="M-463 273h21.9v21.9H-463z"/></defs><clipPath id="l"><use xlink:href="#k" overflow="visible"/></clipPath><path d="M-444.2 288.8s0 .7-.1 1.5c-.8.9-1.4 1.9-4.3 3-.6-.1-1.1-.4-1.3-.4.2-.3 1.4-1.9 2-3 1.4-.3 3.2-1 3.7-1.1" clip-path="url(#l)"/></g><g><defs><path id="m" d="M-463 273h21.9v21.9H-463z"/></defs><clipPath id="n"><use xlink:href="#m" overflow="visible"/></clipPath><circle cx="-452.1" cy="283.9" r="10.4" clip-path="url(#n)" fill="none" stroke="#000" stroke-miterlimit="10"/></g><g><path fill="#1a7dab" d="M-448.2 268.7l-4.3 16h17.7l4.3-16z"/></g><g><path fill="#fff" d="M-444.5 271.6v10.1h1.7v-8.4h2.5v8.4h1.8v-10.1z"/></g><g><path fill="#ff4847" d="M-432.142 265.974l-29.981 29.98-.707-.706 29.98-29.981z"/></g>
</svg>
