<svg width="28" height="28" viewBox="-462 266.2 34.4 28.8" xmlns="http://www.w3.org/2000/svg">
<path d="M-450.3 279.4s-2.1 1-3.5 2.5c.2 1.6.8 3.2 1.4 4.2 1.4.2 3 .2 4.4 0 .4-.8 1-1.9 1.4-4.1-1.1-1.3-2.7-2.1-3.7-2.6z"/><path d="M-450.1 272.2c-6 0-10.9 4.9-10.9 10.9s4.9 10.9 10.9 10.9 10.9-4.9 10.9-10.9-4.9-10.9-10.9-10.9zm7.7 17.2c.1-.7.1-1.3.1-1.3-.5.1-2.3.8-3.6 1-.6 1.1-1.8 2.7-2 3 .1.1.7.3 1.2.4-1.1.4-2.2.6-3.4.6-1.2 0-2.4-.2-3.5-.7.7-.1 1.3-.3 1.3-.3-.3-.4-1.5-1.9-2.1-3.1-1.2-.2-3.1-.8-3.5-1v1.1c-1.3-1.7-2-3.7-2-6v-.3c.3.5.6.9.6.9.3-.4 1.3-2 2.3-3-.2-1.2-.2-3.2-.2-3.6-.1 0-.5.1-.9.3 1.3-1.8 3.1-3.2 5.3-3.8-.5.5-.8.9-.8.9.5.2 2.3.7 3.6 1.3 1.1-.6 3-1.1 3.4-1.2-.1-.1-.4-.6-.7-1 2.3.6 4.2 2 5.6 4-.6-.3-1.1-.4-1.1-.4 0 .5.1 2.4-.1 3.8.9.9 2 2.5 2.2 2.8.1-.1.4-.5.7-.9v.4c-.2 2.2-1 4.4-2.4 6.1z"/><path fill="#1a7dab" d="M-446.2 267.6l-4.4 16h17.7l4.3-16z"/><g><path fill="#fff" d="M-442.7 270.6v10h1.7v-8.3h2.5v8.3h1.8v-10z"/></g>
</svg>
