<svg width="24" height="24" viewBox="0 0 131.4 132.5" fill="#999" xmlns="http://www.w3.org/2000/svg">
<path d="M83.1 82l5.6-17.4c1.2-3.6-.1-7.4-3.1-9.6L70.8 44.2c-3-2.2-7.1-2.2-10.1 0L45.9 55c-3 2.2-4.3 6.1-3.1 9.6L48.4 82c1.2 3.6 4.4 5.9 8.2 5.9h18.3c3.7 0 7-2.4 8.2-5.9zm-8.2.9H56.6c-1.6 0-2.9-1-3.4-2.5L47.5 63c-.5-1.5 0-3.1 1.3-4l14.8-10.7c1.3-.9 3-.9 4.2 0L82.6 59c1.3.9 1.8 2.5 1.3 4l-5.6 17.4c-.5 1.5-1.9 2.5-3.4 2.5z"/><path d="M66 1.1C30.2 1.1 1.1 30.2 1.1 66s29.1 64.9 64.9 64.9c35.8 0 64.9-29.1 64.9-64.9S101.8 1.1 66 1.1zM114.5 31c7 9.6 11.2 21.4 11.3 34.1-.7 0-1.5-.2-2.1-.7l-14.6-11c-1.3-.9-1.8-2.6-1.2-4l5.9-17.3c.2-.4.5-.8.7-1.1zM83.4 8.7c-.3.6-.7 1.1-1.2 1.5l-15 10.5c-1.3.9-3 .9-4.2-.1l-14.6-11c-.3-.2-.5-.5-.7-.7C53.5 7.1 59.6 6.1 66 6.1c6.1 0 11.9.9 17.4 2.6zM17.9 32.5L23.2 50c.5 1.5-.1 3.1-1.4 4l-15 10.5c-.2.2-.5.3-.8.4.2-12.5 4.3-24.1 11.1-33.6.4.4.6.8.8 1.2zm-.2 68.9c.3-.1.6-.1.9-.1l18.3.3c1.6 0 2.9 1 3.4 2.5l5.4 17.5c.1.3.1.6.1.9-11.4-4.1-21.1-11.6-28.1-21.1zm33 22.6c.2-1.3.1-2.6-.3-3.9L45 102.6c-1.1-3.6-4.4-6-8.1-6.1l-18.3-.3c-1.4 0-2.7.3-3.9.9-4.9-8-7.9-17.2-8.6-27.1 1.3-.2 2.5-.7 3.5-1.4l15-10.5c3.1-2.1 4.4-6 3.3-9.6L22.6 31c-.4-1.4-1.3-2.7-2.3-3.7 6.1-7.2 13.8-12.9 22.6-16.6.6 1.2 1.4 2.2 2.5 3l14.6 11c1.5 1.1 3.3 1.7 5.2 1.7 1.7 0 3.5-.5 4.9-1.6l15-10.5c1.4-1 2.5-2.4 3.1-3.9 9 3.6 17 9.4 23.2 16.6-1 .9-1.8 2.1-2.3 3.5l-5.9 17.3c-1.2 3.5 0 7.4 3 9.7l14.6 11c1.4 1.1 3.2 1.7 4.9 1.7-.7 10.3-4 19.8-9.3 28.1-1.3-.8-2.8-1.2-4.3-1.2l-18.3-.3h-.1c-3.7 0-6.9 2.3-8.1 5.8l-5.9 17.3c-.5 1.5-.6 3.1-.3 4.6-4.3 1-8.8 1.5-13.5 1.5-5.2-.1-10.3-.8-15.2-2zm33.6-.9c-.1-.5 0-1.1.2-1.6l5.9-17.3c.5-1.5 1.9-2.4 3.5-2.4l18.3.3c.5 0 1 .1 1.5.4-7.4 9.4-17.6 16.8-29.4 20.6z"/><path d="M65.3 40.8c1.4 0 2.5-1.1 2.5-2.5v-7c0-1.4-1.1-2.5-2.5-2.5s-2.5 1.1-2.5 2.5v7c0 1.4 1.1 2.5 2.5 2.5zM93.1 60.8c.3 0 .7-.1 1-.2l6.4-2.9c1.3-.6 1.8-2 1.3-3.3-.6-1.3-2-1.8-3.3-1.3L92 56c-1.3.6-1.8 2-1.3 3.3.5.9 1.4 1.5 2.4 1.5zM84.3 88.5c-.8-1.1-2.4-1.4-3.5-.6s-1.4 2.4-.6 3.5l4.1 5.7c.5.7 1.3 1 2 1 .5 0 1-.2 1.5-.5 1.1-.8 1.4-2.4.6-3.5l-4.1-5.6zM39.5 55.9L33 53.1c-1.3-.5-2.7 0-3.3 1.3-.5 1.3 0 2.7 1.3 3.3l6.4 2.8c.3.1.7.2 1 .2 1 0 1.9-.6 2.3-1.5.6-1.3 0-2.7-1.2-3.3zM50.9 88.1c-1.1-.8-2.7-.6-3.5.5l-4.3 5.6c-.8 1.1-.6 2.7.5 3.5.5.3 1 .5 1.5.5.8 0 1.5-.3 2-1l4.3-5.6c.8-1.1.6-2.7-.5-3.5z"/>
</svg>
