<svg width="18" height="18" viewBox="0 0 50.3 47.6" fill="#6699ff" xmlns="http://www.w3.org/2000/svg">
<path d="M39.8 47.4c-.2 0-.4-.1-.6-.2l-14.1-9.8L11 47.2c-.3.2-.8.2-1.2 0-.3-.3-.5-.7-.4-1.1l5-16.5L.8 19.3c-.3-.3-.5-.7-.3-1.1.1-.4.5-.7.9-.7l17.2-.4L24.2.8c.1-.4.5-.7.9-.7s.8.3.9.7l5.6 16.3 17.2.4c.4 0 .8.3.9.7.1.4 0 .8-.3 1.1L35.8 29.7l5 16.5c.1.4 0 .8-.4 1.1-.1.1-.4.1-.6.1zM25.1 35.2c.2 0 .4.1.6.2L38.1 44l-4.4-14.4c-.1-.4 0-.8.4-1.1l12-9.1-15-.3c-.4 0-.8-.3-.9-.7L25.1 4.2l-4.9 14.2c-.1.4-.5.7-.9.7l-15 .3 12 9.1c.3.3.5.7.4 1.1L12.2 44l12.3-8.6c.2-.1.4-.2.6-.2z" />
</svg>
