<svg width="24" height="24" viewBox="0 0 112.6 139" fill="#6699ff" xmlns="http://www.w3.org/2000/svg">
<path d="M46.2 71.8c.8 2.4 2.9 3.9 5.4 3.9h9.6c2.5 0 4.7-1.6 5.4-3.9l3-9.1c.8-2.4-.1-4.9-2.1-6.4l-7.8-5.6c-2-1.5-4.7-1.5-6.7 0l-7.8 5.6c-2 1.5-2.8 4-2.1 6.4l3.1 9.1zm2.1-11.5l7.8-5.6c.1-.1.3-.1.4-.1s.3 0 .4.1l7.8 5.6c.2.2.3.5.3.8l-3 9.1c-.1.3-.4.5-.7.5h-9.6c-.3 0-.6-.2-.7-.5l-3-9.1c-.1-.3 0-.6.3-.8z"/><path d="M21.4 62.6c0 19.4 15.8 35.2 35.2 35.2S91.8 82 91.8 62.6 76 27.4 56.6 27.4 21.4 43.2 21.4 62.6zm12.3 19.7l7.6.1c.3 0 .6.2.7.5l2.2 7.2c-4.1-1.8-7.6-4.5-10.5-7.8zm34.2 8.3l2.6-7.7c.1-.3.4-.5.7-.5l8 .1c-3.1 3.6-7 6.3-11.3 8.1zm11.8-36.3l2.6-7.5c2.4 3.9 4 8.5 4.4 13.4L80 55.1c-.3-.2-.4-.5-.3-.8zM56.6 32.4c2.3 0 4.5.3 6.7.8l-6.7 4.7c-.3.2-.6.2-.8 0l-6.2-4.6c2.2-.6 4.6-.9 7-.9zm-12.5 2.7c.3.4.6.7 1 1l7.7 5.7c1 .8 2.2 1.1 3.4 1.1 1.1 0 2.3-.3 3.3-1l7.8-5.5c.6-.4 1.1-.9 1.5-1.5 3.8 1.7 7.3 4.2 10.1 7.2-.3.4-.6.9-.7 1.4L75 52.7c-.8 2.3 0 4.9 2 6.4l7.7 5.7c.6.5 1.3.8 2 .9-.5 4.4-1.9 8.5-4 12.2-.6-.2-1.2-.3-1.8-.3l-9.6-.1h-.1c-2.4 0-4.6 1.5-5.4 3.8l-3.1 9.1c-.2.6-.3 1.2-.3 1.9-1.9.4-3.8.6-5.8.6-2.3 0-4.6-.3-6.8-.8 0-.5-.1-1-.2-1.4l-2.8-9.1c-.7-2.4-2.9-4-5.4-4l-9.6-.1c-.5 0-1 .1-1.5.2-2-3.6-3.3-7.6-3.8-11.9.4-.2.9-.4 1.3-.7l7.8-5.5c2-1.4 2.9-4 2.2-6.3L35 43.9c-.2-.6-.4-1.1-.8-1.6 2.8-3 6.1-5.5 9.9-7.2zM32.8 55.3l-6.2 4.4c.4-4.6 1.9-8.9 4.2-12.7l2.3 7.5c0 .3-.1.6-.3.8z" fill="#6699ff"/>
<path d="M111.4 12.4C90.2.1 57.7 0 56.3 0S22.5.1 1.2 12.4c-.7.5-1.2 1.3-1.2 2.2v63c0 5.2 1.5 10.2 4.4 14.6 5.8 8.9 20.2 26.7 50.6 46.5.4.3.9.4 1.4.4.5 0 .9-.1 1.4-.4 30.4-19.8 44.8-37.6 50.6-46.5 2.8-4.3 4.4-9.4 4.4-14.6v-63c-.2-.9-.6-1.7-1.4-2.2zm-3.8 65.1c0 4.2-1.2 8.3-3.5 11.8-5.5 8.4-19.1 25.3-47.8 44.2-28.7-18.9-42.2-35.7-47.8-44.1C6.2 85.8 5 81.8 5 77.5V16C25.1 5.1 56 5 56.3 5c.3 0 31.2.1 51.3 11v61.5z" fill="#6699ff"/>
</svg>
